<svg width="15" height="14" viewBox="0 0 15 14" fill="none" xmlns="http://www.w3.org/2000/svg">
<path d="M7.49609 0.5C7.53173 0.500019 7.56587 0.509849 7.59375 0.527344C7.62147 0.544826 7.64173 0.56866 7.65332 0.59375L7.6543 0.595703L9.30957 4.15625L9.43262 4.42188L9.72461 4.44434L13.5488 4.73926C13.5852 4.74209 13.6182 4.75552 13.6445 4.77539C13.6704 4.79499 13.688 4.81982 13.6973 4.8457C13.7151 4.89709 13.7024 4.95635 13.6543 4.99902L10.6113 7.66113L10.3701 7.87109L10.46 8.17773L11.6875 12.3506C11.695 12.3775 11.6941 12.4059 11.6846 12.4326C11.6749 12.4598 11.6559 12.4859 11.6279 12.5059C11.5996 12.526 11.5635 12.5382 11.5254 12.5391C11.5063 12.5395 11.4873 12.5372 11.4697 12.5322L11.4209 12.5107L7.76855 10.1445L7.49609 9.96875L7.22461 10.1445L3.57129 12.5107L3.57031 12.5117C3.54149 12.5303 3.50599 12.5413 3.46875 12.541C3.43133 12.5407 3.39567 12.5289 3.36719 12.5098C3.33902 12.4908 3.31916 12.465 3.30859 12.4385C3.30347 12.4255 3.3008 12.4119 3.2998 12.3984L3.30273 12.3574L4.30273 8.15039L4.36914 7.87012L4.16016 7.67188L1.33398 4.99512V4.99414C1.31147 4.97281 1.29717 4.9477 1.29102 4.92188C1.28493 4.89612 1.28648 4.86917 1.2959 4.84375C1.30538 4.81825 1.32286 4.79361 1.34863 4.77441C1.3747 4.7551 1.40768 4.74201 1.44336 4.73926L5.26855 4.44434L5.55957 4.42188L5.68359 4.15625L7.33887 0.595703V0.59375C7.35048 0.568596 7.37062 0.544841 7.39844 0.527344C7.42635 0.509811 7.46041 0.500009 7.49609 0.5Z" stroke="#FFBA49"/>
</svg>
