<svg width="14" height="14" viewBox="0 0 14 14" fill="none" xmlns="http://www.w3.org/2000/svg">
<path d="M13.612 4.81779C13.5699 4.69358 13.4922 4.58444 13.3888 4.50384C13.2853 4.42325 13.1604 4.37472 13.0297 4.36425L9.20478 4.06033L7.54963 0.396487C7.49692 0.278482 7.41118 0.178254 7.30277 0.107899C7.19435 0.037545 7.06789 7.10354e-05 6.93865 1.00891e-07C6.8094 -7.08336e-05 6.6829 0.0372643 6.57441 0.1075C6.46591 0.177735 6.38007 0.277869 6.32722 0.395816L4.67207 4.06033L0.84718 4.36425C0.718669 4.37444 0.595813 4.42142 0.493308 4.4996C0.390804 4.57777 0.312991 4.68382 0.269181 4.80506C0.22537 4.9263 0.217416 5.0576 0.24627 5.18324C0.275124 5.30888 0.339565 5.42355 0.431882 5.51353L3.25845 8.26896L2.25879 12.5977C2.22843 12.7287 2.23816 12.8658 2.28671 12.9913C2.33526 13.1167 2.42039 13.2246 2.53105 13.3011C2.64171 13.3775 2.77279 13.419 2.90728 13.42C3.04178 13.421 3.17348 13.3816 3.28529 13.3068L6.93843 10.8714L10.5916 13.3068C10.7058 13.3827 10.8406 13.4218 10.9778 13.4188C11.1149 13.4158 11.2478 13.3708 11.3587 13.29C11.4695 13.2092 11.553 13.0964 11.5978 12.9667C11.6426 12.8371 11.6466 12.6968 11.6093 12.5648L10.3822 8.27097L13.4255 5.53231C13.6248 5.35251 13.6979 5.07207 13.612 4.81779Z" fill="#FFBA49"/>
</svg>
