<svg width="115.000000" height="27.658203" viewBox="0 0 115 27.6582" fill="none" xmlns="http://www.w3.org/2000/svg" xmlns:xlink="http://www.w3.org/1999/xlink">
	<defs>
		<clipPath id="clip1_169">
			<rect id="trending-up" rx="0.000000" width="16.740507" height="16.740507" transform="translate(11.281649 5.459139)" fill="white" fill-opacity="0"/>
		</clipPath>
		<clipPath id="clip1_165">
			<rect id="Frame 55812" rx="1.636076" width="114.272148" height="26.930380" transform="translate(0.363924 0.363924)" fill="white" fill-opacity="0"/>
		</clipPath>
	</defs>
	<rect id="Frame 55812" rx="1.636076" width="114.272148" height="26.930380" transform="translate(0.363924 0.363924)" fill="#D9D9D9" fill-opacity="0"/>
	<g clip-path="url(#clip1_165)">
		<path id="120% Hike" d="M82.31 10.36Q82.57 10.5 82.9 10.5Q83.25 10.5 83.51 10.35Q83.65 10.28 83.76 10.17Q83.92 10.02 84.01 9.83Q84.11 9.62 84.11 9.35Q84.11 9.08 84 8.86Q83.92 8.68 83.76 8.53Q83.65 8.42 83.51 8.35Q83.25 8.2 82.9 8.2Q82.57 8.2 82.31 8.34Q82.16 8.42 82.04 8.53Q81.89 8.68 81.81 8.85Q81.7 9.08 81.7 9.35Q81.7 9.62 81.8 9.84Q81.89 10.02 82.04 10.17Q82.16 10.29 82.31 10.36ZM42.02 15.1Q41.23 15.85 39.88 16.97L39.15 17.58L39.15 19.04L46.07 19.04L46.07 17.42L41.94 17.42Q43.16 16.38 43.91 15.64Q44.67 14.91 45.26 13.92Q45.67 13.21 45.79 12.46Q45.84 12.15 45.84 11.83Q45.84 10.81 45.38 10.09Q45.22 9.82 44.99 9.59Q44.93 9.54 44.87 9.48Q44.02 8.75 42.54 8.75Q41.48 8.75 40.68 9.21Q40.39 9.38 40.14 9.62Q40.05 9.69 39.98 9.78Q39.19 10.63 39.14 12.17L41.04 12.17Q41.06 11.35 41.43 10.88Q41.55 10.74 41.7 10.64Q42.03 10.42 42.51 10.42Q43.11 10.42 43.44 10.71Q43.5 10.76 43.55 10.82Q43.89 11.23 43.89 11.94Q43.89 12.73 43.35 13.54Q42.82 14.35 42.02 15.1ZM48.25 10.15Q47.37 11.52 47.37 13.94Q47.37 16.38 48.25 17.77Q48.49 18.15 48.82 18.43Q49.69 19.15 51.15 19.15Q52.62 19.15 53.48 18.43Q53.81 18.15 54.06 17.77Q54.93 16.38 54.93 13.94Q54.93 11.52 54.06 10.15Q53.82 9.78 53.5 9.51Q52.64 8.78 51.15 8.78Q49.67 8.78 48.8 9.51Q48.48 9.78 48.25 10.15ZM87.83 15.87L90.46 19.18L93.01 19.18L89.57 15.32L92.98 11.42L90.44 11.42L87.83 14.71L87.83 8.82L85.87 8.82L85.87 19.18L87.83 19.18L87.83 15.87ZM33.88 8.97L33.88 10.78L35.24 10.78L35.24 19.18L37.26 19.18L37.26 8.97L33.88 8.97ZM56.68 10.05Q56.27 10.61 56.27 11.48Q56.27 12.38 56.71 12.95Q56.79 13.06 56.89 13.16Q57.07 13.33 57.27 13.45Q57.79 13.76 58.49 13.76Q59.2 13.76 59.72 13.45Q59.92 13.33 60.1 13.16Q60.2 13.06 60.28 12.95Q60.72 12.38 60.72 11.48Q60.72 10.61 60.3 10.05Q60.21 9.92 60.1 9.81Q59.92 9.64 59.72 9.52Q59.2 9.21 58.49 9.21Q57.79 9.21 57.27 9.52Q57.07 9.64 56.89 9.81Q56.78 9.92 56.68 10.05ZM59.75 19.18L65.25 9.38L63.34 9.38L57.85 19.18L59.75 19.18ZM79.9 19.18L79.9 9.41L77.94 9.41L77.94 13.43L73.76 13.43L73.76 9.41L71.8 9.41L71.8 19.18L73.76 19.18L73.76 15.02L77.94 15.02L77.94 19.18L79.9 19.18ZM58.05 10.51Q58.22 10.39 58.48 10.39Q58.76 10.39 58.94 10.52Q59.28 10.77 59.28 11.48Q59.28 12.04 59.06 12.31Q58.98 12.42 58.88 12.48Q58.71 12.59 58.48 12.59Q58.23 12.59 58.06 12.47Q57.71 12.22 57.71 11.48Q57.71 10.75 58.05 10.51ZM52.87 12.2Q53 12.91 53 13.94Q53 15.01 52.88 15.73Q52.75 16.45 52.34 16.89Q52.29 16.94 52.24 16.99Q51.84 17.33 51.15 17.33Q50.47 17.33 50.07 16.99Q50.01 16.94 49.96 16.89Q49.56 16.45 49.43 15.73Q49.3 15.01 49.3 13.94Q49.3 12.91 49.44 12.2Q49.57 11.49 49.97 11.04Q50.03 10.98 50.09 10.93Q50.48 10.6 51.15 10.6Q51.83 10.6 52.22 10.93Q52.28 10.98 52.34 11.04Q52.74 11.49 52.87 12.2ZM101.28 15.89Q101.33 15.55 101.33 15.13Q101.33 14.03 100.87 13.17Q100.86 13.15 100.85 13.12Q100.6 12.68 100.25 12.33Q99.92 12 99.49 11.77Q99.41 11.73 99.33 11.69Q98.51 11.3 97.51 11.3Q96.39 11.3 95.52 11.77Q95.5 11.78 95.48 11.79Q95.11 11.99 94.81 12.27Q94.39 12.66 94.11 13.19Q93.62 14.1 93.62 15.3Q93.62 16.49 94.11 17.4Q94.39 17.91 94.79 18.29Q95.11 18.59 95.5 18.81Q95.62 18.87 95.74 18.93Q96.54 19.31 97.51 19.31Q98.68 19.31 99.55 18.79Q99.7 18.69 99.84 18.58Q100.37 18.18 100.71 17.66Q100.99 17.24 101.14 16.74L99.02 16.74Q98.81 17.18 98.46 17.41Q98.05 17.68 97.47 17.68Q96.98 17.68 96.59 17.49Q96.38 17.38 96.19 17.21Q96.1 17.12 96.02 17.03Q95.66 16.58 95.61 15.89L101.28 15.89ZM83.87 19.18L83.87 11.42L81.91 11.42L81.91 19.18L83.87 19.18ZM99.09 13.76Q99.29 14.11 99.3 14.57L95.62 14.57Q95.72 13.9 96.09 13.49Q96.16 13.41 96.23 13.35Q96.39 13.21 96.57 13.11Q96.96 12.91 97.45 12.91Q98 12.91 98.42 13.13Q98.6 13.23 98.75 13.36Q98.96 13.54 99.09 13.76ZM62.85 15.59Q62.41 16.16 62.41 17.07Q62.41 17.98 62.85 18.55Q62.93 18.65 63.03 18.74Q63.18 18.9 63.37 19.01Q63.9 19.35 64.64 19.35Q65.35 19.35 65.87 19.03Q66.06 18.91 66.23 18.74Q66.31 18.66 66.39 18.56Q66.84 17.99 66.84 17.07Q66.84 16.13 66.38 15.56Q66.31 15.47 66.23 15.39Q66.07 15.24 65.89 15.12Q65.37 14.8 64.64 14.8Q63.92 14.8 63.4 15.11Q63.2 15.23 63.03 15.39Q62.94 15.49 62.85 15.59ZM64.16 16.11Q64.35 15.97 64.62 15.97Q64.89 15.97 65.06 16.1Q65.41 16.34 65.41 17.07Q65.41 17.8 65.06 18.05Q64.89 18.17 64.62 18.17Q64.35 18.17 64.17 18.04Q63.82 17.79 63.82 17.07Q63.82 16.35 64.16 16.11Z" fill="#43A55D" fill-opacity="1.000000" fill-rule="evenodd"/>
		<rect id="trending-up" rx="0.000000" width="16.740507" height="16.740507" transform="translate(11.281649 5.459139)" fill="#FFFFFF" fill-opacity="0"/>
		<g clip-path="url(#clip1_169)">
			<path id="Vector" d="M27.65 9.46L20.74 16.37L17.1 12.73L11.64 18.19" stroke="#369F52" stroke-opacity="1.000000" stroke-width="1.500000" stroke-linejoin="round" stroke-linecap="round"/>
			<path id="Vector" d="M23.29 9.46L27.65 9.46L27.65 13.82" stroke="#43A55D" stroke-opacity="1.000000" stroke-width="1.455696" stroke-linejoin="round" stroke-linecap="round"/>
		</g>
	</g>
	<rect id="Frame 55812" rx="1.636076" width="114.272148" height="26.930380" transform="translate(0.363924 0.363924)" stroke="#369F52" stroke-opacity="1.000000" stroke-width="0.727848"/>
</svg>
