<svg width="115.000000" height="27.658203" viewBox="0 0 115 27.6582" fill="none" xmlns="http://www.w3.org/2000/svg" xmlns:xlink="http://www.w3.org/1999/xlink">
	<defs>
		<clipPath id="clip1_196">
			<rect id="trending-up" rx="0.000000" width="16.740507" height="16.740507" transform="translate(11.281649 5.459139)" fill="white" fill-opacity="0"/>
		</clipPath>
		<clipPath id="clip1_192">
			<rect id="Frame 55812" rx="1.636076" width="114.272148" height="26.930380" transform="translate(0.363924 0.363924)" fill="white" fill-opacity="0"/>
		</clipPath>
	</defs>
	<rect id="Frame 55812" rx="1.636076" width="114.272148" height="26.930380" transform="translate(0.363924 0.363924)" fill="#D9D9D9" fill-opacity="0"/>
	<g clip-path="url(#clip1_192)">
		<path id="90% Hike" d="M77.89 10.36Q78.16 10.5 78.49 10.5Q78.83 10.5 79.1 10.35Q79.23 10.28 79.35 10.17Q79.51 10.02 79.59 9.83Q79.69 9.62 79.69 9.35Q79.69 9.08 79.59 8.86Q79.5 8.68 79.35 8.53Q79.23 8.42 79.1 8.35Q78.83 8.2 78.49 8.2Q78.16 8.2 77.89 8.34Q77.75 8.42 77.63 8.53Q77.48 8.68 77.39 8.85Q77.28 9.08 77.28 9.35Q77.28 9.62 77.39 9.84Q77.47 10.02 77.63 10.17Q77.75 10.29 77.89 10.36ZM36.81 17.17Q36.49 16.85 36.39 16.31L34.57 16.31Q34.61 16.86 34.81 17.34Q34.9 17.55 35.01 17.75Q35.08 17.86 35.15 17.96Q35.52 18.46 36.13 18.8Q36.85 19.19 37.89 19.19Q39.21 19.19 39.97 18.59Q39.97 18.59 39.98 18.58Q40.73 17.98 41.04 16.83Q41.36 15.67 41.36 13.84Q41.36 11.28 40.54 10.01Q40.36 9.72 40.12 9.5Q39.28 8.73 37.74 8.73Q36.42 8.73 35.56 9.36Q35.37 9.49 35.21 9.65Q35.02 9.85 34.86 10.07Q34.29 10.9 34.29 12.12Q34.29 13.17 34.71 13.91Q34.98 14.37 35.36 14.69Q35.59 14.88 35.85 15.02Q35.9 15.04 35.94 15.06Q36.63 15.38 37.47 15.38Q38.06 15.38 38.58 15.19Q38.65 15.17 38.72 15.14Q39.27 14.9 39.59 14.48Q39.61 14.46 39.63 14.43Q39.63 16.14 39.23 16.86Q39.06 17.18 38.79 17.36Q38.45 17.58 37.97 17.58Q37.3 17.58 36.9 17.25Q36.85 17.21 36.81 17.17ZM43.84 10.15Q42.96 11.52 42.96 13.94Q42.96 16.38 43.84 17.77Q44.08 18.15 44.41 18.43Q45.28 19.15 46.74 19.15Q48.21 19.15 49.07 18.43Q49.4 18.15 49.65 17.77Q50.52 16.38 50.52 13.94Q50.52 11.52 49.65 10.15Q49.41 9.78 49.09 9.51Q48.22 8.78 46.74 8.78Q45.26 8.78 44.39 9.51Q44.07 9.78 43.84 10.15ZM83.42 15.87L86.05 19.18L88.6 19.18L85.16 15.32L88.57 11.42L86.02 11.42L83.42 14.71L83.42 8.82L81.46 8.82L81.46 19.18L83.42 19.18L83.42 15.87ZM52.27 10.05Q51.85 10.61 51.85 11.48Q51.85 12.38 52.29 12.95Q52.38 13.06 52.48 13.16Q52.65 13.33 52.86 13.45Q53.38 13.76 54.08 13.76Q54.78 13.76 55.3 13.45Q55.51 13.33 55.68 13.16Q55.78 13.06 55.87 12.95Q56.3 12.38 56.3 11.48Q56.3 10.61 55.89 10.05Q55.8 9.92 55.68 9.81Q55.51 9.64 55.3 9.52Q54.78 9.21 54.08 9.21Q53.38 9.21 52.86 9.52Q52.65 9.64 52.48 9.81Q52.36 9.92 52.27 10.05ZM55.34 19.18L60.84 9.38L58.92 9.38L53.43 19.18L55.34 19.18ZM75.49 19.18L75.49 9.41L73.53 9.41L73.53 13.43L69.34 13.43L69.34 9.41L67.39 9.41L67.39 19.18L69.34 19.18L69.34 15.02L73.53 15.02L73.53 19.18L75.49 19.18ZM53.64 10.51Q53.81 10.39 54.07 10.39Q54.34 10.39 54.52 10.52Q54.86 10.77 54.86 11.48Q54.86 12.04 54.65 12.31Q54.57 12.42 54.46 12.48Q54.3 12.59 54.07 12.59Q53.81 12.59 53.64 12.47Q53.29 12.22 53.29 11.48Q53.29 10.75 53.64 10.51ZM38.8 13.53Q38.43 13.79 37.88 13.79Q37.1 13.79 36.68 13.4Q36.63 13.36 36.59 13.32Q36.5 13.22 36.43 13.11Q36.17 12.7 36.17 12.11Q36.17 11.48 36.46 11.05Q36.53 10.95 36.61 10.87Q36.72 10.75 36.85 10.66Q37.24 10.4 37.8 10.4Q38.4 10.4 38.8 10.68Q38.91 10.76 39 10.86Q39.04 10.89 39.07 10.93Q39.45 11.37 39.45 12.14Q39.45 12.78 39.14 13.21Q39.09 13.28 39.02 13.34Q38.92 13.45 38.8 13.53ZM48.46 12.2Q48.59 12.91 48.59 13.94Q48.59 15.01 48.46 15.73Q48.34 16.45 47.93 16.89Q47.88 16.94 47.82 16.99Q47.43 17.33 46.74 17.33Q46.05 17.33 45.66 16.99Q45.6 16.94 45.55 16.89Q45.14 16.45 45.02 15.73Q44.89 15.01 44.89 13.94Q44.89 12.91 45.02 12.2Q45.16 11.49 45.56 11.04Q45.61 10.98 45.67 10.93Q46.06 10.6 46.74 10.6Q47.42 10.6 47.81 10.93Q47.87 10.98 47.92 11.04Q48.32 11.49 48.46 12.2ZM96.86 15.89Q96.92 15.55 96.92 15.13Q96.92 14.03 96.46 13.17Q96.45 13.15 96.43 13.12Q96.19 12.68 95.84 12.33Q95.5 12 95.08 11.77Q95 11.73 94.92 11.69Q94.1 11.3 93.1 11.3Q91.98 11.3 91.11 11.77Q91.09 11.78 91.07 11.79Q90.7 11.99 90.39 12.27Q89.98 12.66 89.69 13.19Q89.2 14.1 89.2 15.3Q89.2 16.49 89.7 17.4Q89.98 17.91 90.38 18.29Q90.69 18.59 91.09 18.81Q91.2 18.87 91.32 18.93Q92.12 19.31 93.1 19.31Q94.27 19.31 95.13 18.79Q95.29 18.69 95.43 18.58Q95.96 18.18 96.3 17.66Q96.57 17.24 96.72 16.74L94.61 16.74Q94.39 17.18 94.04 17.41Q93.64 17.68 93.06 17.68Q92.57 17.68 92.18 17.49Q91.96 17.38 91.78 17.21Q91.69 17.12 91.61 17.03Q91.25 16.58 91.19 15.89L96.86 15.89ZM79.46 19.18L79.46 11.42L77.5 11.42L77.5 19.18L79.46 19.18ZM94.68 13.76Q94.88 14.11 94.89 14.57L91.21 14.57Q91.3 13.9 91.68 13.49Q91.74 13.41 91.82 13.35Q91.97 13.21 92.16 13.11Q92.54 12.91 93.04 12.91Q93.58 12.91 94.01 13.13Q94.19 13.23 94.34 13.36Q94.55 13.54 94.68 13.76ZM58.44 15.59Q58 16.16 58 17.07Q58 17.98 58.44 18.55Q58.52 18.65 58.62 18.74Q58.77 18.9 58.95 19.01Q59.48 19.35 60.23 19.35Q60.94 19.35 61.46 19.03Q61.65 18.91 61.81 18.74Q61.9 18.66 61.97 18.56Q62.42 17.99 62.42 17.07Q62.42 16.13 61.97 15.56Q61.9 15.47 61.81 15.39Q61.66 15.24 61.48 15.12Q60.95 14.8 60.23 14.8Q59.51 14.8 58.98 15.11Q58.79 15.23 58.62 15.39Q58.52 15.49 58.44 15.59ZM59.75 16.11Q59.93 15.97 60.21 15.97Q60.48 15.97 60.65 16.1Q60.99 16.34 60.99 17.07Q60.99 17.8 60.65 18.05Q60.47 18.17 60.21 18.17Q59.94 18.17 59.76 18.04Q59.41 17.79 59.41 17.07Q59.41 16.35 59.75 16.11Z" fill="#43A55D" fill-opacity="1.000000" fill-rule="evenodd"/>
		<rect id="trending-up" rx="0.000000" width="16.740507" height="16.740507" transform="translate(11.281649 5.459139)" fill="#FFFFFF" fill-opacity="0"/>
		<g clip-path="url(#clip1_196)">
			<path id="Vector" d="M27.65 9.46L20.74 16.37L17.1 12.73L11.64 18.19" stroke="#369F52" stroke-opacity="1.000000" stroke-width="1.500000" stroke-linejoin="round" stroke-linecap="round"/>
			<path id="Vector" d="M23.29 9.46L27.65 9.46L27.65 13.82" stroke="#43A55D" stroke-opacity="1.000000" stroke-width="1.455696" stroke-linejoin="round" stroke-linecap="round"/>
		</g>
	</g>
	<rect id="Frame 55812" rx="1.636076" width="114.272148" height="26.930380" transform="translate(0.363924 0.363924)" stroke="#369F52" stroke-opacity="1.000000" stroke-width="0.727848"/>
</svg>
