<svg width="33.000000" height="33.000000" viewBox="0 0 33 33" fill="none" xmlns="http://www.w3.org/2000/svg" xmlns:xlink="http://www.w3.org/1999/xlink">
	<defs/>
	<path id="Vector" d="M30.93 4.71L30.93 7.66C30.93 10.25 24.47 12.37 16.5 12.37C8.52 12.37 2.06 10.25 2.06 7.66L2.06 4.71C2.06 2.11 8.52 0 16.5 0C24.47 0 30.93 2.11 30.93 4.71ZM30.93 11.34L30.93 17.97C30.93 20.56 24.47 22.68 16.5 22.68C8.52 22.68 2.06 20.56 2.06 17.97L2.06 11.34C5.16 13.47 10.84 14.47 16.5 14.47C22.15 14.47 27.83 13.47 30.93 11.34ZM30.93 21.65L30.93 28.28C30.93 30.88 24.47 33 16.5 33C8.52 33 2.06 30.88 2.06 28.28L2.06 21.65C5.16 23.79 10.84 24.78 16.5 24.78C22.15 24.78 27.83 23.79 30.93 21.65Z" fill="#1B99D4" fill-opacity="1.000000" fill-rule="nonzero"/>
	<path id="Vector" d="M30.93 7.66C30.93 10.25 24.47 12.37 16.5 12.37C8.52 12.37 2.06 10.25 2.06 7.66L2.06 4.71C2.06 2.11 8.52 0 16.5 0C24.47 0 30.93 2.11 30.93 4.71L30.93 7.66ZM30.93 17.97C30.93 20.56 24.47 22.68 16.5 22.68C8.52 22.68 2.06 20.56 2.06 17.97L2.06 11.34C5.16 13.47 10.84 14.47 16.5 14.47C22.15 14.47 27.83 13.47 30.93 11.34L30.93 17.97ZM30.93 28.28C30.93 30.88 24.47 33 16.5 33C8.52 33 2.06 30.88 2.06 28.28L2.06 21.65C5.16 23.79 10.84 24.78 16.5 24.78C22.15 24.78 27.83 23.79 30.93 21.65L30.93 28.28Z" stroke="#1B99D4" stroke-opacity="1.000000" stroke-width="0.000000"/>
</svg>
