<svg width="26.000000" height="18.416687" viewBox="0 0 26 18.4167" fill="none" xmlns="http://www.w3.org/2000/svg" xmlns:xlink="http://www.w3.org/1999/xlink">
	<defs/>
	<path id="Vector" d="M21.66 16.25C22.85 16.25 23.82 15.27 23.82 14.08L23.83 2.16C23.83 0.97 22.85 0 21.66 0L4.33 0C3.14 0 2.16 0.97 2.16 2.16L2.16 14.08C2.16 15.27 3.14 16.25 4.33 16.25L0 16.25C0 17.44 0.97 18.41 2.16 18.41L23.83 18.41C25.02 18.41 26 17.44 26 16.25L21.66 16.25ZM4.33 2.16L21.66 2.16L21.66 14.08L4.33 14.08L4.33 2.16ZM13 17.33C12.4 17.33 11.91 16.84 11.91 16.25C11.91 15.65 12.4 15.16 13 15.16C13.59 15.16 14.08 15.65 14.08 16.25C14.08 16.84 13.59 17.33 13 17.33Z" fill="#1B99D4" fill-opacity="1.000000" fill-rule="nonzero"/>
	<path id="Vector" d="M23.82 14.08L23.83 2.16C23.83 0.97 22.85 0 21.66 0L4.33 0C3.14 0 2.16 0.97 2.16 2.16L2.16 14.08C2.16 15.27 3.14 16.25 4.33 16.25L0 16.25C0 17.44 0.97 18.41 2.16 18.41L23.83 18.41C25.02 18.41 26 17.44 26 16.25L21.66 16.25C22.85 16.25 23.82 15.27 23.82 14.08ZM21.66 2.16L21.66 14.08L4.33 14.08L4.33 2.16L21.66 2.16ZM11.91 16.25C11.91 15.65 12.4 15.16 13 15.16C13.59 15.16 14.08 15.65 14.08 16.25C14.08 16.84 13.59 17.33 13 17.33C12.4 17.33 11.91 16.84 11.91 16.25Z" stroke="#1B99D4" stroke-opacity="1.000000" stroke-width="0.000000"/>
</svg>
