<svg width="26.000000" height="26.000000" viewBox="0 0 26 26" fill="none" xmlns="http://www.w3.org/2000/svg" xmlns:xlink="http://www.w3.org/1999/xlink">
	<defs>
		<clipPath id="clip1_564">
			<rect id="SVG" rx="0.000000" width="25.000000" height="25.000000" transform="translate(0.500000 0.500000)" fill="white" fill-opacity="0"/>
		</clipPath>
	</defs>
	<g clip-path="url(#clip1_564)">
		<path id="Vector" d="M23.99 10.46L17.49 10.46C17.38 10.46 17.29 10.55 17.29 10.66L17.29 11.88C17.29 11.99 17.38 12.08 17.49 12.08L23.99 12.08C24.1 12.08 24.19 11.99 24.19 11.88L24.19 10.66C24.19 10.55 24.1 10.46 23.99 10.46ZM20.59 13.91L17.49 13.91C17.38 13.91 17.29 14 17.29 14.11L17.29 15.33C17.29 15.44 17.38 15.53 17.49 15.53L20.59 15.53C20.7 15.53 20.79 15.44 20.79 15.33L20.79 14.11C20.79 14 20.7 13.91 20.59 13.91ZM12.11 8.18L11.01 8.18C10.86 8.18 10.73 8.31 10.73 8.47L10.73 14.76C10.73 14.86 10.77 14.94 10.85 14.99L14.63 17.75C14.75 17.84 14.93 17.82 15.02 17.69L15.68 16.8L15.68 16.8C15.77 16.67 15.74 16.49 15.61 16.4L12.4 14.07L12.4 8.47C12.4 8.31 12.27 8.18 12.11 8.18Z" fill="#1B99D4" fill-opacity="1.000000" fill-rule="nonzero"/>
		<path id="Vector" d="M17.49 10.46C17.38 10.46 17.29 10.55 17.29 10.66L17.29 11.88C17.29 11.99 17.38 12.08 17.49 12.08L23.99 12.08C24.1 12.08 24.19 11.99 24.19 11.88L24.19 10.66C24.19 10.55 24.1 10.46 23.99 10.46L17.49 10.46ZM17.49 13.91C17.38 13.91 17.29 14 17.29 14.11L17.29 15.33C17.29 15.44 17.38 15.53 17.49 15.53L20.59 15.53C20.7 15.53 20.79 15.44 20.79 15.33L20.79 14.11C20.79 14 20.7 13.91 20.59 13.91L17.49 13.91ZM11.01 8.18C10.86 8.18 10.73 8.31 10.73 8.47L10.73 14.76C10.73 14.86 10.77 14.94 10.85 14.99L14.63 17.75C14.75 17.84 14.93 17.82 15.02 17.69L15.68 16.8L15.68 16.8C15.77 16.67 15.74 16.49 15.61 16.4L12.4 14.07L12.4 8.47C12.4 8.31 12.27 8.18 12.11 8.18L11.01 8.18Z" stroke="#1B99D4" stroke-opacity="1.000000" stroke-width="0.000000"/>
		<path id="Vector" d="M20.43 17.11L18.96 17.11C18.82 17.11 18.68 17.18 18.61 17.3C18.29 17.81 17.91 18.28 17.48 18.72C16.74 19.46 15.87 20.04 14.91 20.45C13.91 20.87 12.85 21.08 11.76 21.08C10.66 21.08 9.61 20.87 8.61 20.45C7.65 20.04 6.78 19.46 6.04 18.72C5.29 17.97 4.71 17.11 4.3 16.14C3.88 15.15 3.67 14.09 3.67 12.99C3.67 11.9 3.88 10.84 4.3 9.85C4.71 8.88 5.29 8.02 6.04 7.27C6.78 6.53 7.65 5.95 8.61 5.54C9.61 5.12 10.67 4.91 11.76 4.91C12.85 4.91 13.91 5.12 14.91 5.54C15.87 5.95 16.74 6.53 17.48 7.27C17.91 7.71 18.29 8.18 18.61 8.69C18.68 8.81 18.82 8.88 18.96 8.88L20.43 8.88C20.6 8.88 20.72 8.7 20.64 8.55C18.98 5.25 15.63 3.11 11.88 3.07C6.39 3 1.83 7.49 1.82 12.97C1.81 18.47 6.26 22.92 11.76 22.92C15.55 22.92 18.96 20.77 20.64 17.44C20.72 17.29 20.6 17.11 20.43 17.11Z" fill="#1B99D4" fill-opacity="1.000000" fill-rule="nonzero"/>
		<path id="Vector" d="M18.96 17.11C18.82 17.11 18.68 17.18 18.61 17.3C18.29 17.81 17.91 18.28 17.48 18.72C16.74 19.46 15.87 20.04 14.91 20.45C13.91 20.87 12.85 21.08 11.76 21.08C10.66 21.08 9.61 20.87 8.61 20.45C7.65 20.04 6.78 19.46 6.04 18.72C5.29 17.97 4.71 17.11 4.3 16.14C3.88 15.15 3.67 14.09 3.67 12.99C3.67 11.9 3.88 10.84 4.3 9.85C4.71 8.88 5.29 8.02 6.04 7.27C6.78 6.53 7.65 5.95 8.61 5.54C9.61 5.12 10.67 4.91 11.76 4.91C12.85 4.91 13.91 5.12 14.91 5.54C15.87 5.95 16.74 6.53 17.48 7.27C17.91 7.71 18.29 8.18 18.61 8.69C18.68 8.81 18.82 8.88 18.96 8.88L20.43 8.88C20.6 8.88 20.72 8.7 20.64 8.55C18.98 5.25 15.63 3.11 11.88 3.07C6.39 3 1.83 7.49 1.82 12.97C1.81 18.47 6.26 22.92 11.76 22.92C15.55 22.92 18.96 20.77 20.64 17.44C20.72 17.29 20.6 17.11 20.43 17.11L18.96 17.11Z" stroke="#1B99D4" stroke-opacity="1.000000" stroke-width="0.000000"/>
	</g>
</svg>
