<svg width="24" height="25" viewBox="0 0 24 25" fill="none" xmlns="http://www.w3.org/2000/svg">
<path d="M20.4491 20.9495H16.8931V15.3804C16.8931 14.0525 16.8694 12.3429 15.0436 12.3429C13.1915 12.3429 12.908 13.7899 12.908 15.2838V20.9491H9.35213V9.49696H12.7658V11.062H12.8136C13.1552 10.4779 13.6489 9.99732 14.2421 9.67154C14.8352 9.34577 15.5057 9.18697 16.1819 9.21206C19.7861 9.21206 20.4506 11.5828 20.4506 14.667L20.4491 20.9495ZM5.33963 7.93161C4.1999 7.9318 3.27581 7.008 3.27563 5.86827C3.27544 4.72856 4.19916 3.80446 5.33887 3.80427C6.4786 3.804 7.40269 4.7278 7.40287 5.86753C7.40298 6.41484 7.18566 6.93978 6.79872 7.32687C6.41179 7.71396 5.88694 7.93149 5.33963 7.93161ZM7.11769 20.9496H3.5579V9.49696H7.1176L7.11769 20.9496ZM22.222 0.501747H1.77103C0.804469 0.490872 0.0118125 1.26515 0 2.23172V22.768C0.0114375 23.7349 0.804 24.51 1.77094 24.4999H22.222C23.191 24.5119 23.9866 23.7368 24 22.768V2.23012C23.9862 1.26168 23.1905 0.487497 22.222 0.500153" fill="#0A66C2"/>
</svg>
