<svg width="23.833252" height="21.666656" viewBox="0 0 23.8333 21.6667" fill="none" xmlns="http://www.w3.org/2000/svg" xmlns:xlink="http://www.w3.org/1999/xlink">
	<defs/>
	<path id="Vector" d="M8.66 8.66L8.66 17.33L16.25 13L8.66 8.66ZM21.66 4.33L13.45 4.33L17.01 0.76L16.25 0L11.91 4.33L11.88 4.33L7.55 0L6.8 0.76L10.35 4.33L2.16 4.33C0.97 4.33 0 5.3 0 6.5L0 19.5C0 20.69 0.97 21.66 2.16 21.66L21.66 21.66C22.85 21.66 23.83 20.69 23.83 19.5L23.83 6.5C23.83 5.3 22.85 4.33 21.66 4.33ZM21.66 19.5L2.16 19.5L2.16 6.5L21.66 6.5L21.66 19.5Z" fill="#1B99D4" fill-opacity="1.000000" fill-rule="nonzero"/>
	<path id="Vector" d="M8.66 17.33L16.25 13L8.66 8.66L8.66 17.33ZM13.45 4.33L17.01 0.76L16.25 0L11.91 4.33L11.88 4.33L7.55 0L6.8 0.76L10.35 4.33L2.16 4.33C0.97 4.33 0 5.3 0 6.5L0 19.5C0 20.69 0.97 21.66 2.16 21.66L21.66 21.66C22.85 21.66 23.83 20.69 23.83 19.5L23.83 6.5C23.83 5.3 22.85 4.33 21.66 4.33L13.45 4.33ZM2.16 19.5L2.16 6.5L21.66 6.5L21.66 19.5L2.16 19.5Z" stroke="#1B99D4" stroke-opacity="1.000000" stroke-width="0.000000"/>
</svg>
