<svg width="33.000000" height="33.000000" viewBox="0 0 33 33" fill="none" xmlns="http://www.w3.org/2000/svg" xmlns:xlink="http://www.w3.org/1999/xlink">
	<defs>
		<clipPath id="clip1_862">
			<rect id="SVG" rx="3.500000" width="32.000000" height="32.000000" transform="translate(0.500000 0.500000)" fill="white" fill-opacity="0"/>
		</clipPath>
	</defs>
	<rect id="SVG" rx="3.500000" width="32.000000" height="32.000000" transform="translate(0.500000 0.500000)" fill="#FFFFFF" fill-opacity="1.000000"/>
	<g clip-path="url(#clip1_862)">
		<path id="Vector" d="M16.5 32.74C16.06 32.74 15.62 32.62 15.24 32.4L11.27 30.05C10.67 29.71 10.97 29.6 11.16 29.53C11.95 29.26 12.11 29.2 12.96 28.72C13.05 28.66 13.16 28.68 13.25 28.74L16.31 30.55C16.42 30.62 16.57 30.62 16.68 30.55L28.58 23.68C28.69 23.62 28.76 23.49 28.76 23.36L28.76 9.62C28.76 9.48 28.69 9.36 28.57 9.29L16.68 2.42C16.57 2.36 16.42 2.36 16.31 2.42L4.42 9.3C4.3 9.36 4.23 9.49 4.23 9.62L4.23 23.36C4.23 23.49 4.3 23.62 4.42 23.68L7.68 25.56C9.45 26.44 10.53 25.4 10.53 24.35L10.53 10.79C10.53 10.6 10.69 10.45 10.88 10.45L12.39 10.45C12.58 10.45 12.74 10.6 12.74 10.79L12.74 24.36C12.74 26.72 11.45 28.07 9.21 28.07C8.52 28.07 7.98 28.07 6.47 27.32L3.35 25.52C2.58 25.08 2.1 24.25 2.1 23.35L2.1 9.62C2.1 8.73 2.58 7.89 3.35 7.45L15.24 0.58C16 0.15 17 0.15 17.75 0.58L29.65 7.45C30.42 7.9 30.9 8.73 30.9 9.62L30.9 23.36C30.9 24.25 30.42 25.08 29.65 25.53L17.75 32.4C17.37 32.62 16.93 32.74 16.5 32.74ZM26.11 19.2C26.11 16.62 24.36 15.94 20.71 15.46C17.01 14.97 16.64 14.72 16.64 13.85C16.64 13.14 16.95 12.18 19.69 12.18C22.13 12.18 23.04 12.71 23.41 14.36C23.44 14.52 23.58 14.63 23.75 14.63L25.29 14.63C25.39 14.63 25.48 14.59 25.54 14.52C25.61 14.45 25.64 14.36 25.63 14.26C25.4 11.42 23.51 10.09 19.69 10.09C16.3 10.09 14.27 11.53 14.27 13.93C14.27 16.53 16.29 17.26 19.54 17.58C23.44 17.96 23.75 18.53 23.75 19.3C23.75 20.63 22.68 21.19 20.17 21.19C17.02 21.19 16.33 20.4 16.1 18.83C16.07 18.67 15.93 18.54 15.75 18.54L14.21 18.54C14.02 18.54 13.87 18.7 13.87 18.89C13.87 20.89 14.96 23.28 20.18 23.28C23.94 23.28 26.11 21.79 26.11 19.2Z" fill="#008000" fill-opacity="1.000000" fill-rule="nonzero"/>
		<path id="Vector" d="M15.24 32.4L11.27 30.05C10.67 29.71 10.97 29.6 11.16 29.53C11.95 29.26 12.11 29.2 12.96 28.72C13.05 28.66 13.16 28.68 13.25 28.74L16.31 30.55C16.42 30.62 16.57 30.62 16.68 30.55L28.58 23.68C28.69 23.62 28.76 23.49 28.76 23.36L28.76 9.62C28.76 9.48 28.69 9.36 28.57 9.29L16.68 2.42C16.57 2.36 16.42 2.36 16.31 2.42L4.42 9.3C4.3 9.36 4.23 9.49 4.23 9.62L4.23 23.36C4.23 23.49 4.3 23.62 4.42 23.68L7.68 25.56C9.45 26.44 10.53 25.4 10.53 24.35L10.53 10.79C10.53 10.6 10.69 10.45 10.88 10.45L12.39 10.45C12.58 10.45 12.74 10.6 12.74 10.79L12.74 24.36C12.74 26.72 11.45 28.07 9.21 28.07C8.52 28.07 7.98 28.07 6.47 27.32L3.35 25.52C2.58 25.08 2.1 24.25 2.1 23.35L2.1 9.62C2.1 8.73 2.58 7.89 3.35 7.45L15.24 0.58C16 0.15 17 0.15 17.75 0.58L29.65 7.45C30.42 7.9 30.9 8.73 30.9 9.62L30.9 23.36C30.9 24.25 30.42 25.08 29.65 25.53L17.75 32.4C17.37 32.62 16.93 32.74 16.5 32.74C16.06 32.74 15.62 32.62 15.24 32.4ZM20.71 15.46C17.01 14.97 16.64 14.72 16.64 13.85C16.64 13.14 16.95 12.18 19.69 12.18C22.13 12.18 23.04 12.71 23.41 14.36C23.44 14.52 23.58 14.63 23.75 14.63L25.29 14.63C25.39 14.63 25.48 14.59 25.54 14.52C25.61 14.45 25.64 14.36 25.63 14.26C25.4 11.42 23.51 10.09 19.69 10.09C16.3 10.09 14.27 11.53 14.27 13.93C14.27 16.53 16.29 17.26 19.54 17.58C23.44 17.96 23.75 18.53 23.75 19.3C23.75 20.63 22.68 21.19 20.17 21.19C17.02 21.19 16.33 20.4 16.1 18.83C16.07 18.67 15.93 18.54 15.75 18.54L14.21 18.54C14.02 18.54 13.87 18.7 13.87 18.89C13.87 20.89 14.96 23.28 20.18 23.28C23.94 23.28 26.11 21.79 26.11 19.2C26.11 16.62 24.36 15.94 20.71 15.46Z" stroke="#008000" stroke-opacity="1.000000" stroke-width="0.000000"/>
	</g>
</svg>
