<svg width="70" height="70" viewBox="0 0 70 70" fill="none" xmlns="http://www.w3.org/2000/svg">
<rect width="70" height="70" rx="35" fill="#1B99D4"/>
<path d="M45.7817 51.4399C46.0047 48.7622 46.051 40.2273 38.2283 36.4396C41.4818 34.8621 43.7318 32.2794 44.9269 28.7446C45.0374 28.4174 44.8619 28.0628 44.535 27.9524C44.2064 27.8416 43.8536 28.0174 43.7428 28.3442C42.5123 31.9837 40.0471 34.5103 36.4152 35.8537C36.1702 35.9446 36.0072 36.1784 36.0072 36.4399C36.0072 36.7014 36.1702 36.9352 36.4152 37.0262C44.9219 40.1735 44.7508 48.9822 44.527 51.4399H42.642C41.9256 44.2735 36.9334 42.1837 35.2983 41.6901V37.8013C35.2983 37.4561 35.0184 37.1763 34.6733 37.1763C34.3281 37.1763 34.0483 37.4561 34.0483 37.8013V41.6901C32.4132 42.1837 27.421 44.2735 26.7046 51.4399H24.8207C24.7429 50.5749 24.6648 48.8017 25.0441 46.7192C25.106 46.3795 24.8808 46.0542 24.5411 45.9922C24.2006 45.9324 23.8759 46.1558 23.8142 46.4951C23.4269 48.6216 23.4861 50.4656 23.5654 51.4399C22.5084 51.4034 21.6203 52.2556 21.6224 53.3149C21.6224 54.3489 22.4635 55.1899 23.4974 55.1899H45.8491C46.8831 55.1899 47.7241 54.3489 47.7241 53.3149C47.7241 51.4399 45.7817 51.4399 45.7817 51.4399ZM34.673 42.8105C35.5201 43.0012 40.6373 44.4395 41.3896 51.4399H27.957C28.7095 44.4361 33.8313 43 34.673 42.8105ZM45.8491 53.9399H23.4974C23.1529 53.9399 22.8724 53.6595 22.8724 53.3149C22.8724 52.9704 23.1529 52.6899 23.4974 52.6899H45.8491C46.1937 52.6899 46.4741 52.9704 46.4741 53.3149C46.4741 53.6595 46.1937 53.9399 45.8491 53.9399Z" fill="white"/>
<path d="M23.5674 21.4399C23.3872 23.7986 23.2749 32.6138 31.1207 36.439C27.819 38.0388 25.5519 40.6712 24.3709 44.282C24.2637 44.6104 24.4426 44.9632 24.7706 45.0706C25.0901 45.1777 25.4524 45.0018 25.5592 44.6708C26.7729 40.959 29.2531 38.387 32.9313 37.0262C33.1764 36.9352 33.3394 36.7015 33.3394 36.4399C33.3394 36.1784 33.1764 35.9446 32.9313 35.8537C24.4251 32.7068 24.5936 23.9103 24.8197 21.4399H44.5264C44.6 22.2819 44.6805 24.0878 44.3019 26.1641C44.2399 26.5034 44.4652 26.829 44.8048 26.891C45.1365 26.9534 45.4715 26.7298 45.5317 26.3881C45.9201 24.2583 45.8624 22.4236 45.7815 21.4399C46.8384 21.4763 47.7263 20.6241 47.7241 19.5649C47.7241 18.531 46.8831 17.6899 45.8491 17.6899H23.4974C22.4635 17.6899 21.6224 18.531 21.6224 19.5649C21.6224 21.5111 23.5674 21.4399 23.5674 21.4399ZM23.4974 18.9399H45.8491C46.1937 18.9399 46.4741 19.2204 46.4741 19.5649C46.4741 19.9095 46.1937 20.1899 45.8491 20.1899H23.4974C23.1529 20.1899 22.8724 19.9095 22.8724 19.5649C22.8724 19.2204 23.1529 18.9399 23.4974 18.9399Z" fill="white"/>
<path d="M40.4077 26.4861C40.4642 25.9688 40.5948 25.4274 40.7962 24.8769L41.2741 23.5683C41.3425 23.3812 41.3175 23.1728 41.207 23.0071C41.0965 22.8414 40.9137 22.7382 40.7148 22.7294C37.2315 22.5722 34.6497 23.4934 33.0015 25.437C31.8317 25.0512 30.4001 24.8399 28.6316 24.9166C28.4326 24.9254 28.2498 25.0286 28.1394 25.1943C28.0289 25.36 28.0039 25.5684 28.0722 25.7555L28.5504 27.0644C28.7519 27.6146 28.8825 28.1557 28.9386 28.673C29.054 29.7298 29.4898 31.6796 31.1118 32.8646C31.9937 33.5088 33.0905 33.832 34.3875 33.832C34.9881 33.832 35.6317 33.7624 36.3166 33.6235C37.5693 33.3761 38.3098 32.0705 37.939 30.8652C39.7847 29.7259 40.2794 27.6604 40.4077 26.4861ZM31.8491 31.855C30.6147 30.9532 30.2744 29.3892 30.1813 28.5378C30.1142 27.9201 29.9604 27.2798 29.7245 26.635L29.5478 26.1513C34.9094 26.2224 36.3695 29.35 36.7573 31.3128C35.1615 29.0806 32.7432 27.7953 32.6273 27.7345C32.3227 27.5749 31.9446 27.6924 31.7841 27.9979C31.6239 28.3031 31.7417 28.6809 32.0468 28.8414C32.074 28.8557 34.5979 30.2026 35.9905 32.4117C34.2232 32.7569 32.829 32.5706 31.8491 31.855ZM37.5465 29.6177C37.0402 28.366 36.0668 26.9087 34.2122 25.9468C35.4726 24.6607 37.3438 23.9936 39.7989 23.9638C39.5021 24.7279 39.2378 25.5846 39.1651 26.3503C39.0695 27.2264 38.728 28.7172 37.5465 29.6177Z" fill="white"/>
</svg>
