<svg width="26.000000" height="26.000000" viewBox="0 0 26 26" fill="none" xmlns="http://www.w3.org/2000/svg" xmlns:xlink="http://www.w3.org/1999/xlink">

	<defs>
		<clipPath id="clip1_558">
			<rect id="SVG" rx="0.000000" width="25.000000" height="25.000000" transform="translate(0.500000 0.500000)" fill="white" fill-opacity="0"/>
		</clipPath>
	</defs>
	<g clip-path="url(#clip1_558)">
		<path id="Vector" d="M7.92 15.01C8 15.09 8.13 15.09 8.21 15.01L10.79 12.43L12.98 14.62C13.06 14.7 13.19 14.7 13.26 14.62L19.01 8.87C19.09 8.79 19.09 8.66 19.01 8.58L18.08 7.65C18 7.57 17.87 7.57 17.79 7.65L13.12 12.32L10.94 10.13C10.86 10.05 10.73 10.05 10.65 10.13L6.98 13.79C6.91 13.87 6.91 14 6.98 14.08L7.92 15.01Z" fill="#1B99D4" fill-opacity="1.000000" fill-rule="nonzero"/>
		<path id="Vector" d="M8.21 15.01L10.79 12.43L12.98 14.62C13.06 14.7 13.19 14.7 13.26 14.62L19.01 8.87C19.09 8.79 19.09 8.66 19.01 8.58L18.08 7.65C18 7.57 17.87 7.57 17.79 7.65L13.12 12.32L10.94 10.13C10.86 10.05 10.73 10.05 10.65 10.13L6.98 13.79C6.91 13.87 6.91 14 6.98 14.08L7.92 15.01C8 15.09 8.13 15.09 8.21 15.01Z" stroke="#1B99D4" stroke-opacity="1.000000" stroke-width="0.000000"/>
		<path id="Vector" d="M22.95 4.06L13.91 4.06L13.91 2.43C13.91 2.32 13.82 2.23 13.71 2.23L12.28 2.23C12.17 2.23 12.08 2.32 12.08 2.43L12.08 4.06L3.04 4.06C2.59 4.06 2.23 4.42 2.23 4.87L2.23 18.07C2.23 18.52 2.59 18.89 3.04 18.89L12.09 18.89L12.09 19.7L7.91 22.44C7.81 22.5 7.79 22.63 7.85 22.72L8.62 23.92L8.62 23.92C8.68 24.02 8.81 24.04 8.9 23.98L13 21.3L17.09 23.98C17.18 24.04 17.31 24.02 17.37 23.92L17.37 23.92L18.14 22.72C18.2 22.63 18.17 22.5 18.08 22.44L13.91 19.71L13.91 18.89L22.95 18.89C23.4 18.89 23.76 18.52 23.76 18.07L23.76 4.87C23.76 4.42 23.4 4.06 22.95 4.06ZM21.93 17.06L4.06 17.06L4.06 5.89L21.93 5.89L21.93 17.06Z" fill="#1B99D4" fill-opacity="1.000000" fill-rule="nonzero"/>
		<path id="Vector" d="M13.91 4.06L13.91 2.43C13.91 2.32 13.82 2.23 13.71 2.23L12.28 2.23C12.17 2.23 12.08 2.32 12.08 2.43L12.08 4.06L3.04 4.06C2.59 4.06 2.23 4.42 2.23 4.87L2.23 18.07C2.23 18.52 2.59 18.89 3.04 18.89L12.09 18.89L12.09 19.7L7.91 22.44C7.81 22.5 7.79 22.63 7.85 22.72L8.62 23.92L8.62 23.92C8.68 24.02 8.81 24.04 8.9 23.98L13 21.3L17.09 23.98C17.18 24.04 17.31 24.02 17.37 23.92L17.37 23.92L18.14 22.72C18.2 22.63 18.17 22.5 18.08 22.44L13.91 19.71L13.91 18.89L22.95 18.89C23.4 18.89 23.76 18.52 23.76 18.07L23.76 4.87C23.76 4.42 23.4 4.06 22.95 4.06L13.91 4.06ZM4.06 17.06L4.06 5.89L21.93 5.89L21.93 17.06L4.06 17.06Z" stroke="#1B99D4" stroke-opacity="1.000000" stroke-width="0.000000"/>
	</g>
</svg>
