<svg width="42.604004" height="41.410156" viewBox="0 0 42.604 41.4102" fill="none" xmlns="http://www.w3.org/2000/svg" xmlns:xlink="http://www.w3.org/1999/xlink">
	<defs/>
	<path id="Vector" d="M21 41.4C9.3 41.2 -0.2 31.8 0 20.4C0.2 9.1 10.2 -0.3 21.7 0C33.4 0.3 42.7 9.7 42.6 21.1C42.5 32.4 32.8 41.6 21 41.4Z" fill="#1B99D4" fill-opacity="1.000000" fill-rule="nonzero"/>
	<path id="Vector" d="M22.82 21.1C25.32 20 27.32 20.7 28.92 22.7C30.92 25.2 32.02 28 31.52 31.2C31.42 32.3 30.02 32.4 29.12 32.7C24.02 34.3 18.92 34 13.72 32.6C11.72 32 11.12 30.9 11.52 29.1C12.02 26.4 13.22 24 15.12 22C16.42 20.6 17.92 20 19.72 21C20.72 20.7 21.52 21 21.52 22.1C21.62 24.3 21.62 26.6 21.52 28.8C21.52 27 21.52 25.1 21.62 23.3C21.82 22.5 21.32 21.3 22.82 21.1Z" fill="#FFFFFF" fill-opacity="1.000000" fill-rule="nonzero"/>
	<path id="Vector" d="M27.82 13.8C27.82 17.17 25.08 19.9 21.72 19.9C18.35 19.9 15.62 17.17 15.62 13.8C15.62 10.43 18.35 7.7 21.72 7.7C25.08 7.7 27.82 10.43 27.82 13.8Z" fill="#FFFFFF" fill-opacity="1.000000" fill-rule="evenodd"/>
	<path id="Vector" d="M22.57 19.7C21.57 19.6 20.67 19.6 19.67 19.5L19.67 20.3C20.36 20.46 20.7 20.79 20.87 21.2L20.87 28.8L22.27 28.8L22.27 21.1L22.17 21.1C22.28 20.87 22.41 20.63 22.57 20.4L22.57 19.7Z" fill="#1B99D4" fill-opacity="1.000000" fill-rule="evenodd"/>
</svg>
